<svg width="16" height="16" viewBox="0 0 16 16" fill="none" xmlns="http://www.w3.org/2000/svg">
<path fill-rule="evenodd" clip-rule="evenodd" d="M6.66705 2.66665C5.37838 2.66665 4.33371 3.71132 4.33371 4.99998C4.33371 6.28864 5.37838 7.33331 6.66705 7.33331C7.95571 7.33331 9.00038 6.28864 9.00038 4.99998C9.00038 3.71132 7.95571 2.66665 6.66705 2.66665ZM3.00038 4.99998C3.00038 2.97494 4.642 1.33331 6.66705 1.33331C8.69209 1.33331 10.3337 2.97494 10.3337 4.99998C10.3337 7.02502 8.69209 8.66665 6.66705 8.66665C4.642 8.66665 3.00038 7.02502 3.00038 4.99998ZM4.88456 9.66662C4.9226 9.66663 4.9612 9.66665 5.00038 9.66665H8.00038C8.36857 9.66665 8.66705 9.96512 8.66705 10.3333C8.66705 10.7015 8.36857 11 8.00038 11H5.00038C4.0215 11 3.67985 11.0072 3.41981 11.0861C2.78061 11.28 2.2804 11.7802 2.0865 12.4194C2.00762 12.6795 2.00038 13.0211 2.00038 14C2.00038 14.3682 1.7019 14.6666 1.33371 14.6666C0.965525 14.6666 0.667048 14.3682 0.667048 14C0.667048 13.9608 0.667033 13.9222 0.667019 13.8842C0.666717 13.066 0.66651 12.5073 0.810581 12.0324C1.13375 10.967 1.96743 10.1333 3.03276 9.81018C3.5077 9.66611 4.06638 9.66632 4.88456 9.66662ZM15.1385 10.1952C15.3988 10.4556 15.3988 10.8777 15.1385 11.1381L12.4718 13.8047C12.2114 14.0651 11.7893 14.0651 11.529 13.8047L10.1956 12.4714C9.93529 12.211 9.93529 11.7889 10.1956 11.5286C10.456 11.2682 10.8781 11.2682 11.1385 11.5286L12.0004 12.3905L14.1956 10.1952C14.456 9.93489 14.8781 9.93489 15.1385 10.1952Z" fill="#1F1F1F"/>
</svg>
