<svg width="24" height="24" viewBox="0 0 24 24" fill="none" xmlns="http://www.w3.org/2000/svg">
<path fill-rule="evenodd" clip-rule="evenodd" d="M10.0001 4.00146C8.06709 4.00146 6.50008 5.56847 6.50008 7.50146C6.50008 9.43446 8.06709 11.0015 10.0001 11.0015C11.9331 11.0015 13.5001 9.43446 13.5001 7.50146C13.5001 5.56847 11.9331 4.00146 10.0001 4.00146ZM4.50008 7.50146C4.50008 4.4639 6.96252 2.00146 10.0001 2.00146C13.0377 2.00146 15.5001 4.4639 15.5001 7.50146C15.5001 10.539 13.0377 13.0015 10.0001 13.0015C6.96252 13.0015 4.50008 10.539 4.50008 7.50146ZM19.0001 14.0015C19.5524 14.0015 20.0001 14.4492 20.0001 15.0015V17.0015H22.0001C22.5524 17.0015 23.0001 17.4492 23.0001 18.0015C23.0001 18.5537 22.5524 19.0015 22.0001 19.0015H20.0001V21.0015C20.0001 21.5537 19.5524 22.0015 19.0001 22.0015C18.4478 22.0015 18.0001 21.5537 18.0001 21.0015V19.0015H16.0001C15.4478 19.0015 15.0001 18.5537 15.0001 18.0015C15.0001 17.4492 15.4478 17.0015 16.0001 17.0015H18.0001V15.0015C18.0001 14.4492 18.4478 14.0015 19.0001 14.0015ZM7.32635 14.5014C7.38341 14.5014 7.44132 14.5015 7.50009 14.5015H12.0001C12.5524 14.5015 13.0001 14.9492 13.0001 15.5015C13.0001 16.0538 12.5524 16.5015 12.0001 16.5015H7.50009C6.03177 16.5015 5.51929 16.5123 5.12923 16.6306C4.17043 16.9215 3.42011 17.6718 3.12926 18.6306C3.01094 19.0207 3.00008 19.5331 3.00008 21.0015C3.00008 21.5538 2.55237 22.0015 2.00008 22.0015C1.4478 22.0015 1.00008 21.5538 1.00008 21.0015C1.00008 20.9427 1.00006 20.8848 1.00004 20.8277C0.999587 19.6005 0.999277 18.7624 1.21538 18.05C1.70013 16.452 2.95065 15.2015 4.54866 14.7168C5.26106 14.5007 6.09908 14.501 7.32635 14.5014Z" fill="#1F1F1F"/>
</svg>
